
<?xml version="1.0" standalone="no"?>
<!DOCTYPE svg PUBLIC "-//W3C//DTD SVG 20010904//EN"
 "http://www.w3.org/TR/2001/REC-SVG-20010904/DTD/svg10.dtd">
<svg version="1.0" xmlns="http://www.w3.org/2000/svg"
 width="1000.000000pt" height="1080.000000pt" viewBox="0 0 1000.000000 1080.000000"
 preserveAspectRatio="xMidYMid meet">

<g transform="translate(0.000000,1080.000000) scale(0.100000,-0.100000)"
fill="#e02781" stroke="none">
<path d="M4735 9479 c-49 -4 -145 -16 -212 -25 l-123 -18 0 -231 c0 -262 -6
-298 -67 -385 -72 -102 -193 -162 -327 -162 -70 0 -87 4 -150 36 -59 29 -97
61 -230 195 l-159 159 -101 -76 c-273 -205 -482 -416 -680 -685 l-58 -79 165
-167 c204 -205 222 -235 222 -381 0 -86 -3 -101 -32 -162 -40 -85 -106 -151
-191 -191 l-67 -32 -242 -3 c-134 -2 -243 -5 -243 -6 0 -1 -9 -64 -21 -141
-40 -270 -37 -648 7 -932 l16 -101 242 -4 c220 -3 246 -6 296 -26 84 -33 153
-99 197 -189 36 -73 38 -82 38 -172 0 -147 -18 -177 -221 -381 l-164 -166 73
-100 c142 -193 331 -395 495 -532 89 -73 260 -202 268 -202 4 0 85 76 178 169
150 147 178 171 231 191 121 47 273 25 377 -55 l45 -33 134 134 134 134 -377
378 c-400 400 -412 413 -493 537 -487 743 -278 1735 468 2219 572 372 1341
332 1872 -97 28 -22 217 -206 420 -409 l370 -368 129 129 129 129 -40 60 c-53
80 -78 171 -70 258 11 117 39 159 224 346 l166 167 -100 133 c-194 256 -359
420 -616 615 l-122 92 -165 -163 c-209 -207 -232 -221 -380 -221 -97 0 -110 2
-172 32 -81 38 -146 102 -185 181 l-28 57 -3 251 -3 250 -122 18 c-252 35
-514 45 -732 25z"/>
<path d="M4860 8009 c-387 -48 -747 -271 -965 -598 -154 -232 -227 -476 -227
-761 0 -287 78 -537 245 -785 50 -73 169 -198 631 -663 l571 -573 -3 -62 c-8
-162 86 -315 237 -390 80 -39 204 -49 293 -23 181 52 308 234 296 419 -16 229
-191 392 -420 391 l-77 0 -564 565 c-606 608 -623 628 -687 794 -74 190 -81
412 -18 607 44 136 105 237 212 348 88 91 138 129 245 182 231 115 515 124
753 24 164 -68 188 -91 921 -826 l688 -690 -6 -42 c-23 -151 89 -342 242 -414
52 -24 69 -27 173 -27 106 0 120 2 172 28 88 43 152 107 195 193 103 209 18
458 -191 559 -60 29 -164 47 -219 38 l-39 -6 -716 715 c-599 597 -731 724
-802 770 -167 109 -334 179 -512 213 -101 20 -325 27 -428 14z m2613 -1996
c90 -46 87 -201 -3 -248 -34 -18 -102 -20 -133 -4 -92 48 -111 163 -39 232 49
47 109 54 175 20z m-1883 -1335 c95 -49 107 -161 25 -238 -23 -21 -36 -25 -90
-25 -54 0 -67 4 -90 25 -57 53 -70 117 -37 180 19 36 88 80 127 80 11 0 41
-10 65 -22z"/>
<path d="M4904 7095 c-204 -44 -333 -217 -322 -430 8 -152 96 -282 234 -347
56 -26 82 -32 164 -36 l98 -5 736 -736 736 -737 3 -94 c2 -82 7 -104 33 -160
127 -267 466 -329 672 -123 201 200 141 539 -117 666 -55 27 -77 32 -160 35
l-96 4 -741 740 -742 741 -4 96 c-3 77 -9 107 -30 154 -56 120 -182 216 -313
237 -72 12 -74 12 -151 -5z m139 -269 c43 -17 85 -68 93 -110 8 -47 -25 -120
-68 -146 -64 -39 -167 -17 -198 41 -37 68 -31 136 17 181 49 47 99 58 156 34z
m1994 -1986 c111 -67 87 -227 -41 -261 -99 -27 -198 73 -172 175 8 31 53 85
80 96 37 15 100 11 133 -10z"/>
<path d="M3390 3300 l0 -60 110 0 c107 0 110 -1 116 -24 4 -17 -1 -957 -5
-973 -1 -2 -51 -3 -111 -3 l-111 0 3 -57 3 -58 390 0 390 0 3 57 3 57 -113 3
-113 3 -3 498 -2 497 115 0 115 0 0 60 0 60 -395 0 -395 0 0 -60z"/>
<path d="M5484 3347 c-2 -7 -3 -60 -2 -118 l3 -104 198 -3 197 -2 0 -495 0
-495 165 0 165 0 2 493 3 492 198 3 197 2 0 120 0 120 -560 0 c-455 0 -562 -2
-566 -13z"/>
<path d="M4834 3099 c-179 -20 -338 -124 -379 -250 -14 -40 -16 -86 -13 -261
3 -239 7 -254 85 -332 53 -54 100 -82 190 -113 68 -24 93 -27 198 -27 105 0
130 3 199 27 93 33 184 93 221 147 49 71 54 100 55 316 0 245 -7 272 -89 355
-109 108 -279 158 -467 138z m187 -226 c18 -10 41 -31 53 -46 20 -27 21 -41
21 -216 0 -134 -4 -195 -13 -212 -48 -91 -233 -106 -311 -25 l-30 31 -2 196
c-1 199 1 218 38 251 53 49 180 59 244 21z"/>
</g>
</svg>

